<svg width="350" height="350" fill="none" xmlns="http://www.w3.org/2000/svg">
  <path
    d="M44.335 49.65c-2.205-4.725-1.663-8.849 1.51-12.094 3.033-3.102 7.887-3.902 12.12-1.984 3.686 1.67 6.698 4.343 8.047 8.028 2.184 5.963 6.559 8.063 12.311 8.792 11.282 1.43 22.509 3.395 33.822 4.455 11.835 1.109 23.741 1.841 35.622 1.929 8.494.062 14.75-4.865 19.289-11.88 1.297-2.004 1.207-4.043-.136-6.148-2.408-3.775-3.962-7.876-3.008-12.441 1.261-6.031 6.556-9.854 12.51-9.243 5.707.585 10.036 5.534 10.084 11.643.025 3.212-.862 6.179-2.615 8.911-2.448 3.814-2.445 5.136.234 8.706 5.116 6.82 11.726 10.656 20.509 10.635 14.995-.034 29.907-1.175 44.757-3.095 8.438-1.091 16.83-2.554 25.23-3.926 4.162-.68 6.832-3.144 8.441-7.077 1.909-4.67 5.25-8.057 10.119-9.7 4.219-1.425 8.787-.159 11.315 3.036 2.727 3.448 3.009 8.01.687 11.924-2.483 4.186-6.226 6.683-10.859 7.898-4.824 1.265-5.523 2.104-5.511 7.12.067 27.53.221 55.06.174 82.59-.015 8.996-.152 18.026-.918 26.981-1.568 18.327-5.52 36.191-12.655 53.181-3.209 7.641-7.323 14.907-11.135 22.286-1.583 3.066-1.517 3.908 1.486 5.88 2.97 1.949 5.624 4.168 7.278 7.418 3.361 6.6-.367 14.136-7.506 14.896-4.044.43-7.128-1.681-9.845-4.389-.929-.926-1.817-1.922-2.562-2.998-1.108-1.597-1.826-1.262-2.961.086-4.989 5.924-9.774 12.068-15.218 17.551-15.732 15.843-33.913 28.373-53.791 38.434-7.991 4.044-4.997 4.058-13.062.027-27.515-13.752-51.153-32.359-70.256-56.598-.216-.273-.506-.487-.81-.774-1.489 1.804-2.769 3.671-4.363 5.213-2.487 2.404-5.46 3.963-9.073 3.486-3.94-.52-6.82-2.607-8.15-6.407-1.535-4.388-.213-8.258 2.819-11.521 1.478-1.591 3.305-2.865 5.012-4.235 2.6-2.085 2.775-2.933 1.14-5.689-9.252-15.583-15.12-32.451-19.066-50.067-3.944-17.603-4.502-35.459-4.41-53.405.143-27.383.047-54.768.048-82.153 0-4.225-.736-5.278-4.904-6.562-4.903-1.51-9.095-3.93-11.75-8.72Zm33.831 31.926c-.012 9.3-.037 18.601-.034 27.901.01 24.583-1.299 49.194 1.316 73.72.644 6.043 1.957 12.013 2.947 17.925 4.389-2.404 8.337-4.899 12.55-6.812 12.443-5.65 25.319-5.472 38.338-2.318 10.767 2.608 20.778 7.142 30.599 12.126 9.687 4.916 19.126 10.371 29.009 14.846 17.422 7.889 35.498 10.025 54.094 4.274 1.449-.448 2.902-.885 4.353-1.326a6.539 6.539 0 0 1-2.096 2.625c-11.253 8.504-24.123 10.63-37.732 9.129-10.919-1.204-21.067-5.087-30.753-10.156-8.336-4.363-16.516-9.032-24.905-13.288-16.274-8.256-33.179-14.029-51.846-11.963-6.706.743-13.176 2.415-19.258 5.396-.474.232-1.048 1.151-.931 1.57 1.62 5.792 3.351 11.553 4.98 17.063 4.932-2.417 9.369-4.962 14.074-6.826 12.276-4.861 24.738-4.004 37.109-.303 11.132 3.33 21.572 8.377 31.984 13.456 11.007 5.37 22.1 10.48 34.081 13.404 13.084 3.193 26.049 3.641 39.052-.501 4.349-1.385 7.864-3.327 9.34-7.943.329-1.029.964-1.957 1.431-2.944 10.51-22.221 15.256-45.846 15.608-70.217.437-30.161-.08-60.337-.195-90.506-.001-.407-.137-.813-.227-1.311-31.884 6.77-64.122 7.647-96.423 7.736-32.296.089-64.502-.977-96.462-7.634 0 4.264 0 8.35-.003 12.877Zm114.174 165.93c-4.798-1.915-9.678-3.649-14.378-5.782-11.139-5.057-22.08-10.565-33.312-15.398-10.832-4.661-22.2-7.054-34.121-5.867-6.939.691-13.465 2.709-19.888 5.702l6.638 14.255c1.51-.596 2.62-.969 3.674-1.46 12.241-5.692 24.988-6.422 37.808-2.927 9.663 2.633 19.151 5.997 28.554 9.478 11.546 4.274 22.965 8.87 35.248 10.651 2.976.432 5.962.79 8.944 1.181l.102.616c-1.162.462-2.305.984-3.491 1.375-8.356 2.758-16.792 2.265-25.269.632-10.562-2.034-20.539-5.91-30.572-9.619-11.44-4.229-22.957-8.119-35.355-8.252-5.766-.063-11.449.362-17.049 2.345 4.858 8.548 10.487 16.372 16.962 23.526 15.559 17.19 33.569 31.178 54.549 41.218 1.999.957 3.654 1.084 5.703.063 23.678-11.803 44.313-27.397 60.432-48.589 3.587-4.715 6.788-9.724 10.323-14.824-.654-.038-.818-.1-.917-.046-8.915 4.9-18.559 6.777-28.611 6.71-8.824-.059-17.297-2.174-25.974-4.988ZM293.914 53.039c3.145-1.18 5.977-2.763 7.18-6.17.793-2.243.851-4.483-1.029-6.275-1.814-1.73-3.89-1.607-6.072-.656-2.835 1.237-4.679 3.397-5.867 6.154-.855 1.984-2.088 4.135-.47 6.161 1.558 1.953 3.842 1.233 6.258.786Zm-235.7.512c3.437-.085 4.904-1.196 4.45-3.849-.7-4.105-2.683-7.533-6.487-9.571-2.254-1.208-5.19-.813-6.726.701-1.56 1.537-1.82 4.309-.506 6.711 1.925 3.521 5.132 5.197 9.27 6.008Zm199.184 207.176c-.531 1.674-1.859 3.595-1.435 4.974 1.016 3.298 3.241 6.014 6.586 7.459 1.971.851 3.905.645 5.481-.87 1.497-1.439 1.751-3.228 1.117-5.22-1.314-4.132-4.4-6.319-8.228-7.761-1.457-.549-2.543-.148-3.521 1.418ZM180.466 35.016c1-2.685.886-5.29-.636-7.755-1.177-1.908-2.914-2.701-5.157-2.632-2.296.07-3.824 1.167-4.827 3.156-1.255 2.488-.892 4.954.177 7.362 1.006 2.264 2.593 3.983 5.241 3.99 2.536.005 4.151-1.512 5.202-4.121Zm-92.8 224.421c-3.484 1.699-6.558 3.812-7.644 7.841-1.042 3.867 2.104 7.106 5.971 6.18 5.617-1.346 8.401-8.237 5.262-12.999-.815-1.236-1.788-1.919-3.588-1.022Z"
    fill="currentColor" />
  <path
    d="M176.336 149.012c.118-.498.276-.991.348-1.495.647-4.567 3.168-7.501 7.482-9.133a18.323 18.323 0 0 0 5.063-2.948c2.464-2.025 3.221-5.871-.447-8.235-5.678-3.658-6.596-9.416-5.647-15.507 2.493-15.988 19.729-24.06 34.1-16.06 7.214 4.015 12.174 10.167 15.867 17.389 7.368 14.407 9.199 29.864 8.29 45.776-.486 8.506-2.106 16.808-5.805 24.539-3.743 7.823-8.795 14.465-17.285 17.736-14.132 5.446-28.768-3.292-30.975-18.311-.991-6.747 1.177-12.63 3.754-18.569.702-1.618 1.092-3.475 1.155-5.24.069-1.936-1.23-3.306-3.097-3.764-2.001-.49-3.954-.08-4.809 2.003-.647 1.575-1.129 3.363-1.102 5.046.161 9.805-1.449 19.192-6.019 27.958-2.515 4.823-3.33 10.07-3.924 15.388-.074.664-.643 1.273-.982 1.908-.553-.579-1.495-1.1-1.593-1.748-.41-2.732-.741-5.5-.787-8.259-.111-6.66-.036-13.323-.062-19.985-.005-1.314-.007-2.648-.224-3.938-.347-2.069-1.016-3.985.867-5.88.774-.779.776-2.478.851-3.775.423-7.304.781-14.612 1.104-21.921.04-.924.023-2.057-.455-2.761-1.473-2.169-1.359-4.535-1.353-6.949.021-9.736.13-19.476-.075-29.208-.065-3.065-1.031-6.108-1.532-9.17-.084-.515-.089-1.221.194-1.588 1.468-1.902 3.041-3.723 4.794-5.832 1.886 1.975 3.731 3.796 5.41 5.76.332.389.103 1.336.002 2.006-.412 2.715-1.217 5.418-1.258 8.135-.15 10.027.011 20.059-.096 30.087-.028 2.602-.554 5.206-.945 7.795-.425 2.805-.959 5.594-1.482 8.755a13905.64 13905.64 0 0 0-.711 35.795c.563-.507.867-1.127 1.11-1.769 1.705-4.514 2.217-9.209 1.88-13.984-.471-6.687-1.064-13.365-1.606-20.047Z"
    fill="currentColor" />
  <path
    d="M159.004 135.571c1.335.061 2.506.047 3.667.148 3.386.298 5.983 2.452 6.527 6.074 1.107 7.384.409 14.702-1.572 21.893-.148.534-.488 1.014-1.044 2.137-.686-1.442-1.3-2.37-1.575-3.389-.49-1.822-.711-3.715-1.161-5.55-.799-3.257-2.982-4.709-6.319-4.245-4.039.561-7.263 2.599-9.743 5.759-2.973 3.786-5.748 7.729-8.75 11.491-2.4 3.007-5.362 5.428-9.014 6.757-7.322 2.666-14.924-.547-18.53-7.769-2.151-4.308-3.024-8.927-3.265-13.718-.912-18.203 2.525-35.201 14.074-49.817 4.586-5.805 10.096-10.519 17.642-12.215 13.966-3.14 27.914 9.634 26.205 23.875-.722 6.019-3.608 10.504-8.309 14.08-.963.734-1.628 1.861-2.43 2.806a100.78 100.78 0 0 0 3.597 1.683Z"
    fill="currentColor" />
  <path
    d="M176.246 149.007c.631 6.687 1.224 13.365 1.696 20.052.337 4.775-.175 9.47-1.88 13.984-.243.642-.547 1.262-1.111 1.769.225-11.81.45-23.619.759-35.622.204-.208.325-.206.536-.183Z"
    fill="currentColor" />
</svg>