<svg width="625" height="626" viewBox="0 0 625 626" fill="none" xmlns="http://www.w3.org/2000/svg">
<path d="M27.2629 98.9844L110.466 15.8594C120.622 5.70313 134.216 0 148.591 0C162.966 0 176.56 5.625 186.716 15.8594L276.325 105.313C286.482 115.469 292.185 129.141 292.185 143.516C292.185 157.969 286.56 171.484 276.325 181.719L206.325 251.797C222.272 288.952 245.184 322.711 273.825 351.25C302.497 380.078 336.013 402.813 373.2 418.906L443.2 348.828C453.357 338.672 466.95 332.969 481.325 332.969C488.416 332.943 495.44 334.332 501.987 337.055C508.533 339.778 514.47 343.781 519.45 348.828L609.138 438.281C619.294 448.438 624.997 462.109 624.997 476.484C624.997 490.938 619.372 504.453 609.138 514.687L526.013 597.813C508.669 615.156 484.763 625.078 460.232 625.078C455.153 625.078 450.232 624.688 445.232 623.828C341.794 606.797 239.138 551.719 156.247 468.906C73.4347 385.938 18.4347 283.281 1.24722 179.766C-3.67465 150.391 6.16913 120.156 27.2629 98.9844ZM56.6379 170.469C71.8722 262.578 121.403 354.453 196.013 429.063C270.622 503.672 362.419 553.203 454.528 568.437C466.091 570.391 477.966 566.484 486.403 558.125L568.044 476.484L481.482 389.844L387.888 483.594L387.185 484.297L370.31 478.047C319.143 459.235 272.68 429.522 234.139 390.967C195.597 352.413 165.901 305.938 147.107 254.766L140.857 237.891L235.232 143.594L148.669 56.9531L67.0285 138.594C58.591 147.031 54.6847 158.906 56.6379 170.469Z" fill="currentColor"/>
</svg>
